<?xml version="1.0" encoding="utf-8"?>
<!-- Svg Vector Icons : http://www.onlinewebfonts.com/icon -->
<!DOCTYPE svg PUBLIC "-//W3C//DTD SVG 1.1//EN" "http://www.w3.org/Graphics/SVG/1.1/DTD/svg11.dtd">
<svg version="1.1" xmlns="http://www.w3.org/2000/svg" xmlns:xlink="http://www.w3.org/1999/xlink" x="0px" y="0px" viewBox="0 0 1000 1000" enable-background="new 0 0 1000 1000" xml:space="preserve">
<metadata> Svg Vector Icons : http://www.onlinewebfonts.com/icon </metadata>
<g><g><g><g><polygon points="534.8,755.6 534.8,145.4 465.2,145.4 465.2,755.6 292.3,582.7 243.2,631.9 500,888.7 756.8,631.9 707.7,582.7 "/></g><g><path d="M500,10C229.8,10,10,229.8,10,500s219.8,490,490,490c270.2,0,490-219.8,490-490S770.2,10,500,10z M500,923.7C266.4,923.7,76.3,733.6,76.3,500c0-233.6,190-423.7,423.7-423.7c233.6,0,423.7,190.1,423.7,423.7C923.7,733.6,733.6,923.7,500,923.7z"/></g></g></g><g></g><g></g><g></g><g></g><g></g><g></g><g></g><g></g><g></g><g></g><g></g><g></g><g></g><g></g><g></g></g>
</svg>